<svg width="250" height="314" viewBox="0 0 250 314" fill="none" xmlns="http://www.w3.org/2000/svg">
<path fill-rule="evenodd" clip-rule="evenodd" d="M160.971 53.3175C182.482 48.5022 202.411 54.2153 213.122 70.5335C223.833 86.8518 221.031 112.746 218.711 124.175C216.391 135.605 210.505 146.074 203.199 155.162C189.631 172.043 171.294 184.961 150.796 191.934C130.297 198.907 108.041 200.337 86.6791 196.81C74.6957 194.831 37.2109 185.136 29.1193 155.88C21.0278 126.624 15.9068 101.619 33.4292 91.4623C50.9517 81.3052 63.0889 88.9445 71.7634 92.7013C112.29 110.252 139.46 58.1328 160.971 53.3175Z" fill="#57D9A3"/>
<path fill-rule="evenodd" clip-rule="evenodd" d="M191.261 80.7201C194.712 80.4536 198.431 80.626 201.243 82.6436C204.055 84.6612 205.333 89.0917 203.024 91.6698C205.634 90.6493 208.702 92.3803 210.01 94.8594C211.318 97.3386 211.249 100.309 210.856 103.084C209.882 109.957 207.08 116.562 202.816 122.039C202.62 122.617 202.424 123.194 202.228 123.771C207.268 125.071 226.95 132.715 221.632 151.558C216.314 170.401 193.089 177.573 190.712 179.828C186.568 183.759 180.244 184.028 174.535 183.847C160.499 183.402 146.506 181.618 132.807 178.528C131.642 178.265 130.167 178.105 129.496 179.092C124.636 186.237 114.475 186.876 105.856 186.254C94.7862 185.455 83.7797 183.776 72.9748 181.238C66.846 179.798 60.3378 177.794 56.5198 172.788C52.0688 166.952 52.5828 158.862 53.305 151.558C50.3795 153.184 45.5273 154.065 38.7485 154.201C34.7573 153.387 32.2676 151.94 31.2796 149.86C26.7615 140.351 25.2121 128.097 30.8385 118.724C31.5143 117.598 32.2942 116.488 33.3947 115.771C34.5615 115.012 35.9839 114.762 37.3708 114.639C42.8408 114.155 48.4532 115.432 53.1753 118.235C53.1332 102.887 53.091 87.5394 53.0488 72.1917C53.0464 71.3128 53.0586 70.3802 53.5272 69.6366C54.205 68.5611 55.5933 68.2278 56.8429 67.9945C68.2104 65.8725 79.7068 64.4413 91.2476 63.7116C95.0184 63.4731 100.179 64.5226 100.196 68.3009C100.262 82.7706 100.328 97.2402 100.393 111.71C100.409 115.154 100.63 114.866 102.244 113.868C101.23 113.973 101.456 112.253 102.225 111.583C105.094 109.081 109.276 108.989 113.082 109.028C121.597 109.115 130.111 109.202 138.626 109.289C146.876 109.374 156.769 110.42 160.504 117.777C160.396 115.59 162.377 113.527 164.566 113.547C166.953 113.569 168.95 111.498 169.646 109.215C170.343 106.932 170.036 104.478 169.722 102.112C165.873 98.3845 164.866 92.0488 167.368 87.3114C169.871 82.5741 175.673 79.8359 180.921 80.9151C184.311 81.6122 187.811 80.9866 191.261 80.7201ZM92.4624 151.698C92.3492 154.744 92.2292 157.831 91.3326 160.745L92.4624 151.698ZM88.9348 114.31C89.7272 114.542 90.7077 115.244 90.2917 115.958C93.7343 116.302 92.7064 116.142 92.8612 112.085C93.0184 107.969 93.0315 103.417 90.3365 100.302C87.9518 97.5446 84.0627 96.6823 80.4306 96.3722C76.1913 96.0103 71.9066 96.1842 67.7105 96.8885C65.6632 97.2321 63.4456 97.8242 62.2575 99.5266C61.5925 100.479 61.3479 101.656 61.1525 102.801C60.3841 107.307 60.1442 111.902 60.4391 116.462C69.2652 112.356 79.592 111.576 88.9348 114.31ZM165.532 144.555C165.748 144.337 166.075 144.284 166.379 144.242C167.591 144.075 168.804 143.908 170.017 143.742C167.234 142.484 165.547 139.498 165.042 136.485C164.538 133.473 165.031 130.393 165.528 127.379C163.747 129.361 163.876 132.351 164.109 135.004C164.619 140.813 165.316 144.773 165.532 144.555ZM142.631 173.164C142.87 172.388 143.682 171.972 144.276 171.419C145.347 170.424 145.744 168.92 146.093 167.502C147.3 162.599 148.514 157.636 148.499 152.587C148.495 151.517 148.441 150.418 148.795 149.408C149.15 148.399 150.037 147.486 151.107 147.481C152.235 147.476 152.504 145.911 152.403 144.787C152.056 140.914 151.708 137.04 151.36 133.166C151.249 131.929 151.136 130.68 150.76 129.496C149.372 125.118 144.023 122.471 139.7 124.023C139.171 124.213 139.029 124.882 138.969 125.441C138.304 131.637 137.639 137.833 136.974 144.029C136.855 145.13 138.277 145.833 139.35 145.56C140.423 145.287 141.242 144.449 142.17 143.845C143.098 143.241 144.406 142.893 145.258 143.6C146.221 144.399 147.647 143.512 148.483 142.581C149.32 141.65 150.409 140.528 151.599 140.916C150.203 142.251 148.808 143.586 147.412 144.921C146.949 145.364 146.541 146.248 147.126 146.509C148.73 145.941 150.179 144.944 151.284 143.65C151.795 143.634 151.819 144.437 151.534 144.861C150.46 146.46 147.931 146.816 147.28 148.629C145.76 152.86 141.021 155.671 136.579 154.975C135.668 154.833 135.213 156.031 135.104 156.947C134.666 160.598 134.229 164.249 133.792 167.901C133.691 168.741 133.598 169.629 133.943 170.401C134.52 171.689 136.064 172.177 137.432 172.524C139.241 172.982 141.07 173.442 142.919 173.642C143.698 173.727 143.694 173.441 142.631 173.164ZM70.573 166.47C73.1574 167.335 75.8928 167.628 78.6031 167.916C79.7524 168.038 80.9763 168.148 82.0074 167.626C83.2211 167.011 83.8678 165.678 84.3898 164.422C87.3008 157.416 88.9628 149.892 89.2743 142.312C89.3185 141.234 87.9395 140.759 86.8637 140.687C78.2763 140.11 70.0638 143.885 62.2866 147.572C61.9138 147.748 61.5149 147.95 61.3307 148.319C61.1934 148.594 61.2006 148.916 61.2108 149.224C61.3501 153.412 61.5258 157.75 63.3988 161.498C63.9047 162.51 64.5481 163.485 65.4591 164.156C66.0109 164.563 66.6425 164.845 67.2688 165.124C68.3556 165.608 69.4449 166.092 70.573 166.47ZM126.125 150.97C127.27 144.814 128.077 138.596 128.541 132.351C128.699 130.215 128.816 128.044 128.354 125.952C127.892 123.86 126.778 121.827 124.957 120.7C123.834 120.005 122.521 119.693 121.221 119.462C118.85 119.039 116.438 118.847 114.03 118.89C111.905 118.927 109.674 119.186 107.939 120.414C107.366 120.82 106.844 121.352 106.635 122.023C106.425 122.694 106.602 123.518 107.184 123.912C108.655 124.908 109.254 126.772 109.53 128.527C109.805 130.282 109.872 132.119 110.671 133.706C111.084 134.524 111.675 135.237 112.295 135.912C115.658 139.567 120.044 142.272 124.82 143.635C125.66 143.875 126.728 144.393 126.551 145.248C129.192 146.915 126.081 151.206 126.125 150.97ZM118.845 169.126C119.818 168.535 120.477 167.552 121.058 166.573C123.521 162.42 125.136 157.766 125.776 152.98C116.916 152.94 108.108 149.597 101.453 143.748C101.225 144.662 101.269 145.618 101.3 146.56C101.494 152.439 101.146 158.335 100.26 164.149C100.048 165.535 100.877 166.921 102.015 167.74C103.153 168.558 104.555 168.91 105.932 169.175C109.036 169.773 112.207 170.018 115.366 169.904C116.567 169.861 117.818 169.75 118.845 169.126ZM174.755 118.421C174.239 117.176 173.851 115.773 172.78 114.956C171.708 114.139 169.691 114.539 169.628 115.885C170.688 115.689 171.499 116.998 171.318 118.061C171.137 119.124 170.365 119.97 169.751 120.856C168.902 122.081 168.322 123.467 167.748 124.842C166.382 128.113 165.851 131.728 166.217 135.254C166.433 137.33 167.002 139.462 168.405 141.006C169.809 142.551 172.215 143.323 174.064 142.356C175.653 141.526 176.445 139.695 176.809 137.941C177.174 136.186 177.239 134.348 177.927 132.693C179.196 129.64 182.328 127.796 185.425 126.638C180.769 126.005 176.556 122.761 174.755 118.421ZM161.88 121.724C162.087 122.524 162.374 123.304 162.734 124.048C162.951 123 163.298 121.979 163.766 121.016C163.293 120.962 162.816 120.936 162.34 120.939C162.224 120.94 162.102 120.944 162.004 121.006C161.784 121.145 161.814 121.471 161.88 121.724ZM105.758 120.9C105.464 121.136 105.292 121.644 105.602 121.858C106.076 121.383 106.55 120.909 107.024 120.434C106.926 120.313 106.783 120.228 106.63 120.2C106.442 120.526 106.051 120.664 105.758 120.9Z" fill="white"/>
<path d="M187.833 117.5C188.846 117.5 189.667 116.679 189.667 115.667C189.667 114.654 188.846 113.833 187.833 113.833C186.821 113.833 186 114.654 186 115.667C186 116.679 186.821 117.5 187.833 117.5Z" fill="#FFB61D"/>
<path d="M177.333 115.667C177.886 115.667 178.333 115.219 178.333 114.667C178.333 114.114 177.886 113.667 177.333 113.667C176.781 113.667 176.333 114.114 176.333 114.667C176.333 115.219 176.781 115.667 177.333 115.667Z" fill="#FFB61D"/>
<path fill-rule="evenodd" clip-rule="evenodd" d="M82.6419 89.3589C85.6419 89.3779 88.6418 89.3969 91.6418 89.416C91.7822 89.4169 91.9331 89.421 92.0464 89.5041C92.2778 89.674 92.1854 90.0719 91.9472 90.232C91.7089 90.3921 91.4 90.3853 91.1131 90.3754C88.4731 90.2837 85.8251 90.4209 83.2087 90.7847C82.8108 90.84 82.391 90.8981 82.0188 90.7469C81.6467 90.5956 81.3619 90.15 81.5333 89.7866C81.7122 89.407 82.2222 89.3562 82.6419 89.3589ZM72.61 89.0642C72.8001 89.2538 72.709 89.6016 72.4978 89.7673C72.2866 89.9329 72.0037 89.9661 71.7367 89.9931C69.0771 90.2624 66.4175 90.5317 63.7579 90.801C63.4434 90.8329 63.1182 90.8637 62.8172 90.7668C62.5163 90.67 62.244 90.4098 62.2369 90.0937C62.2296 89.7677 62.5065 89.4908 62.8156 89.3867C63.1247 89.2827 63.4605 89.3118 63.7856 89.3374C66.5107 89.5518 69.2623 89.4281 71.9572 88.9702C72.1829 88.9318 72.4478 88.9026 72.61 89.0642ZM72.2374 83.959C72.4362 84.1194 72.3654 84.4632 72.166 84.6227C71.9666 84.7822 71.6952 84.8087 71.4407 84.8287L62.8995 85.5026C62.5798 85.5278 62.2485 85.5516 61.9469 85.4425C61.6453 85.3334 61.3808 85.0524 61.3981 84.7322C61.4156 84.4077 61.7153 84.156 62.031 84.0794C62.3468 84.0028 62.6774 84.06 62.9989 84.1075C65.8977 84.536 68.8454 84.1453 71.7637 83.88C71.9274 83.8651 72.1095 83.8558 72.2374 83.959ZM84.1659 82.2668C85.9481 82.4945 87.7549 82.5291 89.5445 82.3699C90.2559 82.3066 91.116 82.2769 91.5202 82.8658C91.0403 83.2537 90.381 83.3087 89.7652 83.3475C87.7244 83.4761 85.6837 83.6048 83.6429 83.7334C83.1774 83.7627 82.5972 83.7275 82.4054 83.3023C82.2333 82.9207 82.5362 82.4618 82.9252 82.3073C83.3142 82.1527 83.7507 82.2138 84.1659 82.2668ZM68.7696 80.0849C68.7717 80.3932 68.3855 80.5262 68.0805 80.5709L63.5953 81.2283C63.2751 81.2752 62.9443 81.3216 62.6317 81.2381C62.3191 81.1547 62.0268 80.906 61.9976 80.5837C61.9618 80.1892 62.3322 79.8563 62.7188 79.7703C63.1055 79.6844 63.5061 79.7743 63.899 79.8249C65.2538 79.9995 66.6205 79.7017 67.9857 79.6548C68.3197 79.6433 68.7672 79.7507 68.7696 80.0849ZM90.4115 79.0113C90.7585 79.0501 91.1147 79.2571 91.2074 79.5938C90.5912 80.0599 89.7765 80.1448 89.0069 80.213C87.6893 80.3297 86.3718 80.4465 85.0543 80.5633C84.5902 80.6044 84.126 80.6456 83.6619 80.6867C83.3226 80.7168 82.9696 80.7451 82.6509 80.6247C82.3322 80.5042 82.0599 80.188 82.1073 79.8506C82.1821 79.319 82.8799 79.181 83.4166 79.1925C85.4082 79.2353 87.4248 79.5359 89.3761 79.1349C89.7182 79.0646 90.0645 78.9725 90.4115 79.0113ZM92.1609 73.9821C82.3986 75.2985 72.3896 74.6169 62.7616 76.6993C62.1906 76.8228 61.3936 76.8289 61.246 76.2637C61.2592 75.5976 62.1207 75.3573 62.7851 75.3099C72.1512 74.6419 81.5174 73.9739 90.8835 73.3059C91.433 73.2667 92.2042 73.433 92.1609 73.9821Z" fill="#E7EAEE"/>
<path fill-rule="evenodd" clip-rule="evenodd" d="M57.8207 175.176C57.9227 176.357 56.2947 176.757 55.1092 176.762C48.9482 176.786 42.7933 177.929 37.0341 180.118C36.1551 180.452 35.2145 180.873 34.7867 181.71C34.2202 182.819 34.8385 184.238 35.8406 184.977C36.8427 185.715 38.1218 185.941 39.3507 186.141C71.2931 191.342 103.711 193.622 136.067 192.943L136.587 192.932C140.318 192.845 144.127 192.645 147.546 191.167C144.715 189.184 141.885 187.2 139.055 185.216C143.954 184.238 149.009 184.935 153.981 185.426C165.36 186.549 176.848 186.572 188.231 185.494C187.43 186.775 185.668 186.952 184.158 186.985C169.838 187.293 155.502 186.784 141.24 185.462C143.101 186.687 144.962 187.911 146.822 189.136C147.497 189.579 148.243 190.143 148.282 190.949C148.34 192.16 146.852 192.765 145.655 192.963C141.683 193.619 137.643 193.723 133.619 193.782C102.186 194.242 70.7138 191.993 39.6658 187.068C38.1508 186.828 36.581 186.559 35.3178 185.689C34.0546 184.819 33.1934 183.164 33.7242 181.725C34.2522 180.294 35.8586 179.621 37.309 179.148C43.9462 176.98 50.8541 175.642 57.8207 175.176ZM100.196 68.3009C100.262 82.7706 100.328 97.2402 100.393 111.71C100.409 115.154 101.088 119.512 104.418 120.389C109.02 118.264 114.208 117.425 119.245 117.99C122.128 118.313 125.123 119.185 127.075 121.332C129.753 124.277 129.757 128.712 129.469 132.682C128.887 140.729 127.739 148.735 126.037 156.622C127.389 156.537 128.768 157.079 129.7 158.063C128.265 158.719 126.556 158.746 125.101 158.137C126.1 163.553 121.687 168.898 116.402 170.449C111.117 172.001 105.382 170.538 100.412 168.163C99.9462 169.978 102.374 171.044 104.228 171.318C108.934 172.014 113.64 172.709 118.346 173.405C112.534 173.58 106.703 173.104 100.997 171.989C99.9462 173.478 102.326 174.98 104.124 175.271C108.894 176.043 113.664 176.815 118.434 177.587C113.046 177.551 107.661 177.192 102.316 176.512C105.715 179.578 110.355 181.227 114.927 180.992C112.348 181.841 109.483 181.79 106.936 180.85C110.122 185.117 116.641 185.908 121.402 183.521C126.162 181.134 129.271 176.251 130.791 171.148C132.312 166.044 132.46 160.65 132.729 155.332C133.226 145.514 134.177 135.71 135.897 126.031C137.055 119.514 139.899 111.742 146.455 110.821C134.776 110.283 123.086 109.993 111.395 109.951C107.843 109.938 103.43 110.519 102.244 113.868C101.23 113.973 101.456 112.253 102.225 111.583C105.094 109.081 109.276 108.989 113.082 109.028L138.626 109.289C146.876 109.374 156.769 110.42 160.504 117.777C160.396 115.59 162.377 113.527 164.566 113.547C166.953 113.569 168.95 111.498 169.646 109.215C170.343 106.932 170.036 104.478 169.722 102.112C165.873 98.3844 164.866 92.0488 167.368 87.3114C168.076 85.9715 169.123 82.7765 174.964 80.7201C178.859 79.3491 182.708 79.4999 186.513 81.1723C193.658 79.7906 198.568 80.2811 201.243 82.6436C205.256 86.1874 205.333 89.0917 203.024 91.6698C205.634 90.6493 208.702 92.3803 210.01 94.8594C211.318 97.3386 211.249 100.309 210.856 103.084C209.882 109.957 207.08 116.562 202.816 122.039L202.228 123.771C212.543 126.431 220.888 135.549 222.626 146.059C219.196 138.329 214.553 130.142 206.554 127.397C204.749 129.291 202.893 131.266 202.046 133.741C201.198 136.216 201.656 139.343 203.805 140.833C202.455 141.146 201.105 141.459 199.755 141.772C200.205 142.569 200.654 143.366 201.104 144.163C196.002 148.041 195.416 155.376 195.447 161.784C195.477 168.192 195.361 175.418 190.712 179.828C186.568 183.759 180.244 184.028 174.535 183.847C160.499 183.402 146.506 181.618 132.807 178.528C131.642 178.265 130.167 178.105 129.496 179.092C124.636 186.237 114.475 186.875 105.856 186.254C94.7862 185.455 83.7796 183.776 72.9748 181.238C66.846 179.798 60.3378 177.794 56.5198 172.788C52.0688 166.952 52.5828 158.862 53.305 151.558C48.9167 153.998 43.7144 154.942 38.7485 154.201C43.9831 150.778 46.5215 144.231 46.5692 137.978C46.6168 131.724 44.5294 125.662 42.2069 119.855C37.0899 122.823 34.3976 129.079 34.798 134.981C35.1983 140.883 38.3297 146.361 42.5311 150.525C37.3519 147.257 33.9249 141.368 33.6412 135.25C33.3575 129.133 36.225 122.952 41.0796 119.219C40.3038 116.566 36.3017 116.242 34.2042 118.041C32.1066 119.841 31.4484 122.763 30.9088 125.473C29.9119 130.482 28.9108 135.608 29.6351 140.663C30.3595 145.719 33.152 150.779 37.8315 152.824C35.6447 154.401 32.7319 152.131 31.2796 149.86C25.39 140.65 25.2121 128.097 30.8384 118.724C31.5143 117.598 32.2941 116.488 33.3947 115.771C34.5614 115.012 35.9839 114.762 37.3707 114.639C42.8408 114.155 48.4532 115.432 53.1753 118.235C53.1331 102.887 53.091 87.5394 53.0488 72.1917C53.0464 71.3128 53.0586 70.3802 53.5272 69.6366C54.2049 68.5611 55.5933 68.2278 56.8429 67.9945C68.2104 65.8725 79.7068 64.4413 91.2475 63.7116C95.0184 63.4731 100.179 64.5226 100.196 68.3009ZM92.4883 64.6362C80.2525 65.2122 68.0608 66.7248 56.0552 69.1564C55.5442 69.2599 55.0032 69.3807 54.6318 69.7465C54.1258 70.2449 54.0867 71.0345 54.0801 71.7446C53.9367 87.0267 53.9973 102.311 54.2619 117.591C55.7311 117.225 57.2003 116.859 58.6696 116.492C58.0952 113.357 57.5184 110.179 57.764 107.001C58.0096 103.822 59.1759 100.59 61.5748 98.4909C64.1712 96.2189 67.7944 95.5769 71.236 95.3352C74.5456 95.1029 77.8752 95.1567 81.1755 95.496C84.5445 95.8423 88.0934 96.5903 90.5239 98.9488C94.0349 102.356 94.0917 107.875 93.9099 112.764C93.4274 125.742 92.9449 138.72 92.4624 151.698C92.3491 154.744 92.2292 157.831 91.3326 160.745C90.436 163.659 88.6565 166.428 85.9642 167.858C83.3222 169.261 80.1608 169.221 77.1885 168.883C74.3507 168.561 71.5403 167.998 68.7971 167.203C67.1307 166.721 65.4634 166.14 64.0472 165.137C59.3611 161.821 58.8071 155.204 58.6932 149.464C56.8939 149.139 55.1349 150.509 54.3919 152.18C53.649 153.85 53.6819 155.748 53.728 157.576C53.8431 162.136 54.0208 166.923 56.3484 170.845C59.9396 176.897 67.4829 179.133 74.3701 180.578C86.5944 183.143 99.0059 184.816 111.473 185.579C105.909 182.745 100.976 177.895 99.8026 171.762C99.4838 170.096 99.4496 168.39 99.4164 166.694C98.7668 133.535 98.1172 100.375 97.4676 67.2159C97.4265 65.1189 94.5834 64.5376 92.4883 64.6362ZM139.921 119.078C139.611 119.833 139.386 120.67 139.592 121.459C139.799 122.249 140.566 122.938 141.37 122.804C144.974 122.204 148.86 123.979 150.765 127.097C152.337 129.669 152.555 132.817 152.732 135.826L154.344 163.242C154.517 166.171 154.602 169.395 152.781 171.697C150.418 174.683 145.983 174.782 142.193 174.412C139.066 174.106 135.777 173.586 133.349 171.591C133.435 172.752 133.097 173.94 132.412 174.881C131.567 176.043 132.931 177.571 134.259 178.12C135.88 178.791 137.644 179.025 139.384 179.251C147.354 180.285 155.33 181.283 163.309 182.244C169.451 182.983 175.692 183.699 181.798 182.707C177.935 181.623 174.238 179.947 170.877 177.757C169.2 176.664 167.578 175.416 166.434 173.773C164.567 171.091 164.174 167.684 163.863 164.431C162.939 154.758 162.251 145.063 161.801 135.357C161.469 128.198 159.173 121.139 155.23 115.154C154.525 114.084 153.663 112.974 152.417 112.676C147.461 111.491 141.854 114.364 139.921 119.078ZM117.197 181.031C117.618 181.102 118.049 181.197 118.396 181.445C118.742 181.694 118.984 182.135 118.877 182.548C118.77 182.961 118.226 183.232 117.881 182.981C117.502 182.703 116.996 182.693 116.544 182.565C116.091 182.437 115.616 182.061 115.698 181.598C115.801 181.01 116.609 180.931 117.197 181.031ZM99.7447 181.205C100.266 181.314 100.877 181.686 100.77 182.207C100.676 182.668 100.106 182.821 99.6407 182.883C99.1188 182.953 98.5618 183.017 98.0879 182.788C97.6141 182.559 97.3067 181.911 97.6176 181.486C97.8272 181.2 98.2196 181.123 98.5744 181.109C98.9665 181.093 99.3605 181.126 99.7447 181.205ZM130.947 175.405C130.452 175.762 130.112 176.288 129.763 176.789C128.171 179.07 126.153 181.053 123.844 182.605C123.901 182.85 124.268 182.788 124.486 182.662C127.159 181.113 129.067 178.554 130.899 176.065C131.048 175.862 131.172 175.521 130.947 175.405ZM154.853 113.774C156.279 115.458 157.717 117.158 158.76 119.103C159.892 121.211 160.527 123.548 161.039 125.885C163.901 138.961 163.137 152.555 164.992 165.812C165.327 168.204 165.77 170.647 167.014 172.717C168.472 175.142 170.892 176.823 173.357 178.212C175.351 179.335 177.432 180.321 179.622 180.987C183.103 182.045 187.286 182.119 189.955 179.645C191.454 178.256 192.243 176.274 192.858 174.326C195.498 165.974 195.788 156.893 193.687 148.389C193.74 153.475 194.401 158.549 194.25 163.633C194.099 168.716 193.055 173.951 190.066 178.067C189.474 178.882 188.788 179.664 187.894 180.128C186.716 180.738 185.316 180.727 183.998 180.566C181.698 180.285 179.449 179.59 177.391 178.524C175.827 177.714 174.381 176.697 172.98 175.631C171.351 174.392 169.751 173.058 168.61 171.359C167.479 169.676 166.848 167.709 166.348 165.744C162.697 151.391 165.308 135.909 160.975 121.748C159.953 118.41 158.18 114.829 154.853 113.774ZM67.7374 176.914C76.1672 178.215 84.5971 179.516 93.027 180.817C92.8134 181.375 92.0427 181.395 91.4508 181.316C84.2414 180.352 77.032 179.389 69.8227 178.426C69.0076 178.317 68.1926 178.209 67.3776 178.1C66.9908 178.048 66.5104 177.908 66.4615 177.521C66.3926 176.975 67.1937 176.83 67.7374 176.914ZM165.528 127.379C163.747 129.361 163.876 132.351 164.109 135.004C164.619 140.813 165.13 146.621 165.64 152.429C165.664 152.701 165.693 152.987 165.852 153.209C166.113 153.571 166.618 153.634 167.063 153.665C173.123 154.092 179.184 154.519 185.245 154.946C184.792 155.663 183.77 155.673 182.925 155.608C177.219 155.168 171.49 155.025 165.77 155.181C165.671 158.114 166.103 161.065 167.039 163.847C167.445 165.053 169.008 165.31 170.279 165.361C175.126 165.558 179.974 165.754 184.822 165.95C185.045 166.452 184.262 166.766 183.712 166.76C178.729 166.702 173.746 166.645 168.763 166.588C168.081 166.58 167.834 167.547 168.091 168.179C168.763 169.832 170.903 170.187 172.684 170.299L183.825 170.996C184.079 171.012 184.132 171.412 183.946 171.587C183.76 171.761 183.477 171.766 183.223 171.76L170.179 171.484C173.551 175.498 178.282 178.35 183.406 179.459C184.51 179.698 185.681 179.855 186.753 179.501C188.037 179.077 188.983 177.987 189.724 176.857C193.654 170.861 193.393 163.146 192.992 155.988L192.536 147.875C192.695 147.656 193.022 147.581 193.261 147.707C193.353 147.309 192.836 147.073 192.434 147C183.568 145.371 174.47 143.74 165.597 145.33C165.314 145.214 165.316 144.773 165.532 144.555C165.748 144.337 166.075 144.284 166.379 144.242C167.591 144.075 168.804 143.908 170.017 143.742C167.234 142.484 165.547 139.498 165.042 136.485C164.538 133.473 165.031 130.393 165.528 127.379ZM121.952 176.701C122.742 176.848 123.654 177.089 123.962 177.831C123.083 178.43 121.928 178.369 120.867 178.284C120.576 178.261 120.257 178.225 120.052 178.016C119.689 177.647 119.96 176.965 120.426 176.741C120.893 176.516 121.443 176.606 121.952 176.701ZM61.8082 171.281C70.8905 174.135 80.302 175.939 89.7957 176.647C90.5322 176.701 91.522 177.052 91.3806 177.777C81.3401 176.642 71.3609 174.963 61.5012 172.752C60.8721 172.611 60.0648 172.163 60.2991 171.562C60.505 171.034 61.2677 171.111 61.8082 171.281ZM95.074 175.686C95.5378 175.685 95.9855 175.844 96.4189 176.009C96.6394 176.093 96.882 176.201 96.9674 176.421C97.1496 176.889 96.5035 177.224 96.0088 177.314C95.6758 177.374 95.3429 177.435 95.0099 177.495C94.729 177.546 94.4267 177.595 94.1682 177.473C93.7483 177.277 93.6392 176.671 93.8801 176.274C94.1209 175.878 94.6103 175.687 95.074 175.686ZM137.842 174.685C141.859 175.449 145.974 175.492 150.063 175.533C150.38 175.536 150.465 176.034 150.239 176.256C150.013 176.477 149.66 176.487 149.344 176.481C145.527 176.406 141.704 176.003 137.898 176.303C137.484 176.336 137.054 176.375 136.664 176.229C136.275 176.083 135.943 175.69 136.017 175.281C136.081 174.929 136.425 174.681 136.776 174.613C137.128 174.545 137.49 174.618 137.842 174.685ZM146.918 111.706C142.369 112.385 138.548 116.433 138.132 121.014C137.743 125.291 136.562 129.451 135.722 133.664C133.023 147.191 133.842 161.21 131.455 174.796C132.327 173.209 132.562 171.362 132.781 169.564L138.568 122.174C138.722 120.914 138.879 119.638 139.332 118.451C140.57 115.208 143.77 113.17 146.918 111.706ZM126.236 173.083C126.484 173.162 126.737 173.265 126.903 173.466C127.068 173.667 127.109 173.991 126.929 174.178C126.792 174.319 126.579 174.345 126.384 174.362C125.744 174.418 125.105 174.475 124.466 174.531C124.121 174.562 123.764 174.591 123.435 174.482C123.106 174.373 122.81 174.088 122.8 173.742C122.784 173.155 123.508 172.86 124.093 172.822C124.815 172.775 125.546 172.864 126.236 173.083ZM139.7 124.023C139.171 124.213 139.029 124.882 138.969 125.441L136.973 144.029C136.855 145.13 138.277 145.833 139.35 145.56C140.423 145.287 141.242 144.449 142.17 143.845C143.098 143.241 144.406 142.893 145.258 143.6C146.221 144.399 147.647 143.512 148.483 142.581C149.32 141.65 150.409 140.528 151.599 140.916C150.203 142.251 148.808 143.586 147.412 144.921C146.949 145.364 146.541 146.248 147.126 146.509C148.73 145.941 150.179 144.944 151.284 143.65C151.795 143.634 151.819 144.437 151.534 144.861C150.46 146.46 147.931 146.816 147.28 148.629C145.76 152.86 141.021 155.671 136.579 154.975C135.668 154.833 135.213 156.031 135.104 156.947C134.666 160.598 134.229 164.249 133.792 167.901C133.691 168.741 133.597 169.629 133.943 170.401C134.52 171.689 136.064 172.177 137.432 172.524C140.002 173.175 142.615 173.831 145.265 173.737C147.915 173.643 150.654 172.696 152.332 170.643C151.868 170.039 150.833 170.813 150.156 170.464C149.494 170.122 149.846 168.985 150.556 168.762C151.267 168.538 152.017 168.894 152.677 169.239C153.092 168.43 153.518 167.564 153.433 166.659C153.348 165.754 152.517 164.859 151.631 165.062C151.049 165.196 150.812 164.187 151.281 163.817C151.751 163.448 152.425 163.568 153.006 163.706C153.038 161.521 153.071 159.337 153.103 157.153C153.11 156.707 153.111 156.239 152.9 155.846C152.688 155.453 152.187 155.179 151.786 155.372C151.238 155.636 150.764 154.704 151.13 154.219C151.496 153.734 152.188 153.671 152.795 153.65C152.842 151.71 152.717 149.766 152.421 147.848C150.134 148.994 149.734 152.017 149.504 154.564C149.062 159.449 148.172 164.293 146.849 169.016C146.553 170.074 146.22 171.156 145.528 172.009C144.835 172.862 143.694 173.441 142.631 173.164C142.87 172.388 143.682 171.971 144.276 171.419C145.347 170.424 145.744 168.92 146.093 167.502C147.3 162.599 148.514 157.636 148.499 152.587L148.496 152.248C148.489 151.286 148.478 150.312 148.795 149.408C149.149 148.399 150.037 147.486 151.107 147.481C152.235 147.476 152.504 145.911 152.403 144.787C152.056 140.914 151.708 137.04 151.36 133.166C151.249 131.929 151.136 130.68 150.76 129.496C149.372 125.118 144.023 122.471 139.7 124.023ZM156.721 171.268C157.251 171.41 157.766 171.956 157.545 172.458C157.335 172.939 156.674 172.965 156.152 172.916C155.897 172.891 155.625 172.861 155.425 172.699C155.076 172.417 155.125 171.817 155.453 171.509C155.78 171.201 156.287 171.151 156.721 171.268ZM93.0105 170.731C93.3593 170.807 93.7227 170.908 93.9734 171.162C94.2241 171.416 94.307 171.869 94.0579 172.124C93.8543 172.333 93.5257 172.337 93.2343 172.326C92.8154 172.312 92.3964 172.297 91.9774 172.282C91.7348 172.274 91.4754 172.26 91.2806 172.115C90.8643 171.805 91.047 171.08 91.494 170.817C91.941 170.553 92.5035 170.621 93.0105 170.731ZM60.7274 166.93C63.0729 168.021 65.6498 168.496 68.1982 168.94C73.3569 169.839 78.5311 170.649 83.7178 171.368C84.4436 171.469 85.2474 171.612 85.6897 172.196C83.6812 172.333 81.6737 171.998 79.6883 171.665C73.1434 170.566 66.5985 169.467 60.0536 168.368C59.3675 168.253 58.4818 167.872 58.6154 167.189C58.7738 166.38 59.9797 166.582 60.7274 166.93ZM101.453 143.748C101.225 144.662 101.269 145.618 101.3 146.56C101.494 152.438 101.146 158.335 100.26 164.149C100.048 165.535 100.877 166.921 102.015 167.74C103.153 168.558 104.555 168.91 105.932 169.175C109.036 169.773 112.207 170.018 115.366 169.904C116.567 169.861 117.818 169.75 118.845 169.126C119.818 168.535 120.477 167.552 121.058 166.573C123.521 162.42 125.136 157.766 125.776 152.98C116.916 152.94 108.108 149.597 101.453 143.748ZM124.626 167.054C125.231 167.254 125.836 167.453 126.441 167.653C126.643 167.72 126.859 167.797 126.979 167.972C127.181 168.269 126.985 168.703 126.672 168.879C126.359 169.055 125.979 169.045 125.62 169.031C124.967 169.005 124.246 168.95 123.79 168.482C123.334 168.014 123.491 167.003 124.143 166.961C124.308 166.95 124.47 167.002 124.626 167.054ZM156.336 167.142C156.696 167.199 157.076 167.266 157.353 167.502C157.63 167.738 157.744 168.206 157.488 168.466C157.385 168.571 157.243 168.625 157.104 168.673C156.568 168.859 155.974 169.008 155.444 168.805C154.915 168.602 154.554 167.902 154.887 167.443C155.192 167.021 155.822 167.06 156.336 167.142ZM62.2866 147.572C61.9138 147.748 61.5149 147.95 61.3307 148.319C61.1934 148.594 61.2006 148.916 61.2108 149.224C61.3501 153.412 61.5258 157.75 63.3988 161.498C63.9046 162.51 64.5481 163.485 65.459 164.156C66.0109 164.563 66.6425 164.845 67.2688 165.124C68.3556 165.608 69.4449 166.092 70.573 166.47C73.1574 167.335 75.8928 167.628 78.603 167.916C79.7524 168.038 80.9763 168.148 82.0074 167.626C83.2211 167.011 83.8677 165.678 84.3897 164.422C87.3008 157.416 88.9628 149.892 89.2743 142.312C89.3185 141.234 87.9394 140.759 86.8637 140.687C78.2763 140.11 70.0638 143.885 62.2866 147.572ZM90.6078 142.008C90.3874 142.297 90.36 142.685 90.3382 143.049C89.8244 151.622 87.6906 160.095 84.0829 167.889C87.5201 166.149 90.0812 162.771 90.828 158.992C91.0847 157.693 91.1373 156.363 91.1891 155.039C91.3525 150.866 91.5159 146.693 91.6793 142.52C91.6879 142.3 91.6895 142.058 91.5495 141.888C91.318 141.607 90.8281 141.718 90.6078 142.008ZM92.0314 162.889C92.4675 162.912 92.8775 163.094 93.3014 163.199C93.6811 163.294 93.7957 163.834 93.5838 164.163C93.3719 164.492 92.9632 164.635 92.5757 164.689C92.1713 164.746 91.7363 164.725 91.3885 164.511C91.0407 164.296 90.815 163.85 90.9539 163.466C91.1025 163.055 91.5952 162.865 92.0314 162.889ZM156.586 161.756C156.994 161.84 157.344 162.092 157.68 162.339C157.862 162.472 158.056 162.622 158.115 162.84C158.191 163.119 158.008 163.418 157.755 163.557C157.502 163.696 157.199 163.706 156.911 163.683C156.502 163.65 156.08 163.549 155.772 163.279C155.464 163.009 155.307 162.534 155.499 162.172C155.694 161.804 156.178 161.671 156.586 161.756ZM59.5686 148.791C59.4571 148.99 59.4796 149.234 59.5053 149.46L60.1113 154.795C60.4401 157.69 60.8707 160.811 62.8943 162.907C63.2317 162.747 63.0413 162.24 62.8286 161.933C61.1895 159.567 60.8738 156.559 60.6079 153.694C60.4521 152.014 60.2962 150.334 60.1404 148.655C59.9837 148.489 59.6802 148.592 59.5686 148.791ZM167.477 159.719C173.037 159.857 178.597 159.994 184.156 160.131C185.007 160.152 185.861 160.173 186.703 160.3C186.527 160.908 185.728 161.022 185.095 161.016C179.52 160.964 173.926 160.618 168.38 161.198C167.906 161.248 167.395 161.296 166.983 161.056C166.572 160.815 166.387 160.154 166.766 159.864C166.962 159.714 167.23 159.713 167.477 159.719ZM152.202 158.627C152.325 158.667 152.45 158.71 152.55 158.791C152.882 159.061 152.758 159.639 152.418 159.9C152.079 160.161 151.62 160.191 151.192 160.202C150.746 160.213 150.226 160.178 149.972 159.811C149.653 159.351 150.032 158.67 150.56 158.483C151.088 158.297 151.67 158.453 152.202 158.627ZM156.267 157.504C156.786 157.56 157.29 157.741 157.725 158.029C158.058 158.249 157.991 158.8 157.689 159.06C157.386 159.319 156.954 159.356 156.556 159.341C156.153 159.327 155.733 159.265 155.407 159.028C155.081 158.791 154.887 158.333 155.062 157.97C155.261 157.555 155.81 157.454 156.267 157.504ZM100.26 144.816C99.9567 149.179 99.821 153.554 99.8529 157.928C99.8542 158.113 99.98 158.376 100.138 158.28C100.473 154.603 100.637 150.911 100.63 147.219C100.629 146.402 100.612 145.554 100.26 144.816ZM94.3161 156.01C94.7931 156.046 95.214 156.323 95.6028 156.602C95.7224 156.688 95.8457 156.779 95.9126 156.91C96.0512 157.182 95.885 157.532 95.6246 157.691C95.3642 157.85 95.0418 157.863 94.737 157.848C94.0437 157.816 93.1721 157.439 93.2497 156.749C93.3031 156.274 93.8391 155.974 94.3161 156.01ZM157.422 153.071C157.886 153.261 158.364 153.759 158.124 154.2C157.962 154.498 157.566 154.562 157.227 154.566C156.832 154.57 156.437 154.538 156.049 154.47C155.502 154.374 155.418 153.515 155.843 153.157C156.267 152.8 156.909 152.86 157.422 153.071ZM211.522 144.532C211.714 144.853 211.717 145.247 211.715 145.62C211.699 148.261 211.682 150.901 211.666 153.542C211.664 153.862 211.621 154.251 211.33 154.385C211.078 154.502 210.768 154.338 210.628 154.099C210.489 153.86 210.476 153.57 210.471 153.293C210.43 150.935 210.693 148.522 210.026 146.26C209.827 145.589 209.59 144.749 210.109 144.279C210.514 143.911 211.242 144.063 211.522 144.532ZM143.637 144.227C141.636 145.469 139.53 146.745 137.181 146.915C136.753 146.945 136.561 147.456 136.477 147.876C136.097 149.766 135.888 151.691 135.852 153.618C135.85 153.736 135.851 153.863 135.919 153.959C136.027 154.112 136.248 154.118 136.435 154.108C138.268 154.012 140.126 153.821 141.828 153.135C143.53 152.449 145.079 151.206 145.773 149.506C146.466 147.807 146.133 145.64 144.716 144.473C144.412 144.222 143.973 144.018 143.637 144.227ZM128.314 151.659C128.957 151.828 129.6 151.997 130.243 152.166C130.484 152.229 130.751 152.313 130.866 152.533C131.001 152.792 130.844 153.127 130.599 153.287C130.354 153.447 130.049 153.478 129.758 153.504C129.295 153.545 128.819 153.585 128.376 153.448C127.932 153.311 127.524 152.954 127.473 152.492C127.422 152.031 127.865 151.541 128.314 151.659ZM39.1091 116.472C41.5159 117.447 43.3274 119.555 44.451 121.896C45.5746 124.237 46.0862 126.818 46.5321 129.377C47.2701 133.61 47.8577 137.932 47.3197 142.196C46.7816 146.46 44.9992 150.712 41.6949 153.46C44.1018 153.588 46.9757 153.493 48.2824 151.467C48.8689 150.558 50.131 150.156 51.1352 150.558C50.5039 150.012 50.9804 148.996 51.449 148.305C53.3689 145.476 54.6862 142.223 55.1569 138.836C56.0697 132.269 53.7749 125.613 50.3698 119.923C48.1606 116.232 43.0074 114.652 39.1091 116.472ZM96.1749 150.493C96.6715 150.688 96.5558 151.509 96.0917 151.772C95.6275 152.036 95.049 151.918 94.5317 151.786C94.2905 151.725 94.0344 151.653 93.8706 151.465C93.4883 151.028 93.9271 150.288 94.4933 150.158C95.0596 150.027 95.6342 150.28 96.1749 150.493ZM114.03 118.89C111.905 118.927 109.674 119.186 107.939 120.414C107.365 120.82 106.844 121.352 106.635 122.023C106.425 122.694 106.602 123.518 107.184 123.912C108.655 124.908 109.254 126.772 109.53 128.527C109.805 130.282 109.872 132.119 110.671 133.706C111.084 134.524 111.675 135.237 112.295 135.912C115.658 139.567 120.044 142.272 124.82 143.635C125.66 143.875 126.728 144.393 126.551 145.248C119.679 143.807 113.413 139.66 109.4 133.899C108.181 137.643 105.776 140.992 102.617 143.344C108.779 148.587 116.753 151.66 124.841 151.906C125.207 151.917 125.622 151.903 125.869 151.633C126.031 151.455 126.081 151.206 126.125 150.97C127.27 144.814 128.077 138.595 128.541 132.351C128.699 130.215 128.816 128.044 128.354 125.952C127.892 123.86 126.778 121.827 124.957 120.7C123.834 120.005 122.521 119.693 121.221 119.462C118.85 119.039 116.438 118.847 114.03 118.89ZM156.253 148.848C156.81 148.848 157.513 149.011 157.611 149.56C157.708 150.106 157.085 150.513 156.535 150.584C156.132 150.635 155.694 150.586 155.374 150.336C155.054 150.085 154.906 149.594 155.128 149.254C155.355 148.905 155.836 148.848 156.253 148.848ZM197.421 137.871C196.398 141.832 195.801 145.889 195.206 149.937C195.177 150.139 195.16 150.377 195.312 150.512C196.906 148.532 198.368 146.445 199.686 144.271C199.816 144.057 199.944 143.776 199.798 143.572C199.468 143.11 199.138 142.649 198.807 142.187C198.562 141.844 198.31 141.393 198.525 141.031C198.701 140.737 199.093 140.675 199.434 140.643L202.234 140.385C202.204 140.212 202.099 140.062 201.996 139.919C201.246 138.876 200.428 137.778 199.227 137.321C198.562 137.067 197.599 137.181 197.421 137.871ZM67.7105 96.8885C65.6632 97.2321 63.4456 97.8242 62.2574 99.5266C61.5925 100.479 61.3479 101.656 61.1525 102.801C60.3841 107.306 60.1441 111.902 60.4391 116.462C69.2652 112.356 79.592 111.576 88.9348 114.31C89.7272 114.542 90.7077 115.244 90.2917 115.958C83.2834 113.365 75.4772 112.979 68.247 114.866C65.9074 115.476 63.6339 116.316 61.3077 116.976C57.8506 117.956 54.2801 118.536 50.6905 118.699C57.2281 127.575 58.0741 140.286 52.7706 149.95C56.0703 149.326 59.1708 147.939 62.2133 146.517C66.7559 144.395 71.2789 142.156 76.1042 140.793C80.9296 139.43 86.1468 138.985 90.9331 140.479C91.493 140.654 91.8016 139.845 91.8239 139.259L92.8612 112.085C93.0183 107.969 93.0315 103.417 90.3365 100.302C87.9518 97.5446 84.0626 96.6823 80.4306 96.3722C76.1913 96.0103 71.9066 96.1842 67.7105 96.8885ZM130.944 147.325C131.078 147.412 131.216 147.522 131.247 147.679C131.311 147.998 130.924 148.201 130.611 148.289C130.157 148.418 129.69 148.547 129.221 148.497C128.752 148.448 128.274 148.179 128.12 147.733C127.966 147.287 128.276 146.702 128.748 146.693C129.521 146.679 130.296 146.902 130.944 147.325ZM197.517 130.225C195.81 131.183 193.77 131.533 191.841 131.199C192.088 131.887 193.17 132.127 193.175 132.857C193.178 133.302 192.759 133.616 192.521 133.992C192.337 134.281 192.258 134.622 192.185 134.957C191.498 138.103 191.103 141.313 191.008 144.533C190.992 145.088 191.13 145.82 191.681 145.881C192.824 146.006 193.9 146.646 194.555 147.591C195.091 144.216 195.628 140.84 196.164 137.465C196.288 136.682 196.393 135.807 195.934 135.16C195.303 134.27 195.852 133.052 196.406 132.111L197.517 130.225ZM95.8613 144.815C96.444 144.931 97.107 145.434 96.8862 145.986C96.7502 146.326 96.3395 146.463 95.9739 146.483C95.6083 146.502 95.2279 146.448 94.8856 146.578C94.4826 146.731 94.0083 146.374 93.9591 145.946C93.9099 145.518 94.2075 145.102 94.5952 144.914C94.9829 144.726 95.4387 144.731 95.8613 144.815ZM156.246 144.294C156.613 144.344 157.001 144.425 157.268 144.682C157.535 144.939 157.609 145.429 157.324 145.666C157.23 145.745 157.111 145.786 156.995 145.826C156.491 145.998 155.951 146.167 155.433 146.039C154.915 145.911 154.465 145.362 154.644 144.86C154.851 144.28 155.637 144.209 156.246 144.294ZM189.687 137.355C189.298 137.448 189.014 137.773 188.758 138.08L187.213 139.93C186.911 140.292 187.442 140.796 187.912 140.835C188.381 140.874 188.929 140.764 189.263 141.096C189.613 141.444 189.469 142.05 189.182 142.452C188.896 142.854 188.489 143.182 188.316 143.644C188.057 144.335 188.486 145.201 189.192 145.413C189.576 145.529 190.114 145.351 190.117 144.95C190.137 142.609 190.274 140.268 190.527 137.939C190.571 137.542 190.076 137.261 189.687 137.355ZM111.298 138.518C111.594 138.714 111.786 139.029 111.983 139.324C113.678 141.862 116.513 143.606 119.542 143.975C120.243 144.061 121.07 144.146 121.421 144.758C120.761 145.412 119.685 145.332 118.78 145.121C115.573 144.375 112.634 142.522 110.578 139.95C110.25 139.54 109.951 138.916 110.317 138.539C110.564 138.284 111.002 138.321 111.298 138.518ZM188.021 127.303C185.756 127.86 183.494 128.645 181.658 130.084C179.823 131.523 178.457 133.709 178.472 136.041C178.49 138.999 177.037 141.93 174.671 143.706L178.654 144.175C179.12 144.23 179.643 144.269 180.008 143.974C180.542 143.542 180.405 142.713 180.27 142.04C180.135 141.366 180.165 140.476 180.806 140.229C181.601 139.921 182.26 141.025 182.139 141.869C182.019 142.714 181.529 143.526 181.682 144.365C183.568 144.633 185.46 144.858 187.356 145.041C186.979 144.732 186.938 144.145 187.129 143.696C187.319 143.247 187.69 142.903 188.05 142.574C188.434 142.223 187.881 141.605 187.364 141.549C186.847 141.493 186.239 141.618 185.875 141.247C185.421 140.786 185.761 140.013 186.148 139.495C186.898 138.489 187.828 137.277 187.345 136.119C186.168 133.295 186.427 129.915 188.021 127.303ZM101.16 119.588C100.845 127.318 100.888 135.062 101.29 142.788C104.242 141.186 106.4 138.367 107.738 135.285C108.554 133.405 109.101 131.333 108.774 129.31C108.531 127.801 107.816 126.407 106.986 125.124C105.512 122.848 103.589 120.793 101.16 119.588ZM169.628 115.885C170.688 115.689 171.499 116.998 171.318 118.061C171.137 119.124 170.365 119.97 169.751 120.856C168.902 122.081 168.322 123.467 167.748 124.842C166.382 128.113 165.851 131.728 166.217 135.254C166.433 137.33 167.002 139.462 168.405 141.006C169.809 142.551 172.215 143.323 174.064 142.356C175.653 141.526 176.445 139.695 176.809 137.941C177.174 136.186 177.239 134.348 177.927 132.693C179.196 129.64 182.328 127.796 185.425 126.638C180.769 126.005 176.556 122.761 174.755 118.421C174.239 117.176 173.851 115.773 172.78 114.956C171.708 114.139 169.691 114.539 169.628 115.885ZM130.271 140.785C130.599 140.848 130.92 140.943 131.229 141.069C131.739 141.276 132.286 141.849 131.958 142.291C131.779 142.533 131.435 142.562 131.135 142.569C130.587 142.583 129.996 142.585 129.548 142.269C129.101 141.952 128.946 141.187 129.397 140.876C129.645 140.705 129.976 140.728 130.271 140.785ZM154.956 139.48C155.399 139.518 155.84 139.579 156.277 139.664C156.493 139.707 156.726 139.765 156.862 139.938C157.068 140.201 156.938 140.613 156.678 140.821C156.417 141.03 156.071 141.089 155.741 141.14C155.238 141.219 154.701 141.294 154.236 141.084C153.771 140.875 153.454 140.26 153.738 139.837C153.986 139.468 154.513 139.443 154.956 139.48ZM28.2328 137.096C27.8573 137.092 27.7274 137.593 27.7388 137.968C27.7716 139.047 27.9899 140.12 28.3813 141.125C28.4903 141.236 28.6168 141.004 28.6016 140.849L28.2328 137.096ZM100.38 139.873C100.145 140 100.056 140.337 100.197 140.563L100.202 140.571L100.197 140.577C100.191 140.584 100.184 140.593 100.177 140.604C100.083 140.747 100.215 140.973 100.386 140.961C100.501 140.61 100.499 140.222 100.38 139.873ZM95.4996 138.346C96.0077 138.459 96.5592 138.88 96.4328 139.385C96.3491 139.719 95.9972 139.916 95.6606 139.99C95.3241 140.065 94.9683 140.06 94.6469 140.185C94.2382 140.344 93.7459 140.014 93.6617 139.584C93.5775 139.154 93.8411 138.704 94.2216 138.486C94.602 138.268 95.0715 138.252 95.4996 138.346ZM98.4399 67.1463C98.4694 90.4155 99.004 113.684 100.043 136.93L100.152 139.334L100.169 138.56C100.199 136.754 100.172 134.946 100.146 133.139C99.8357 111.958 99.5255 90.7774 99.2153 69.5966C99.2023 68.7098 99.1325 67.7004 98.4399 67.1463ZM131.722 134.944C132.007 135.029 132.293 135.158 132.478 135.391C132.663 135.625 132.716 135.983 132.533 136.217C132.356 136.445 132.035 136.488 131.748 136.513L130.524 136.622C130.324 136.64 130.109 136.654 129.935 136.554C129.794 136.472 129.701 136.324 129.658 136.168C129.53 135.696 129.849 135.185 130.29 134.975C130.731 134.764 131.254 134.803 131.722 134.944ZM33.1102 116.729C31.8373 117.979 31.1753 119.708 30.5636 121.385C28.8592 126.056 27.2394 131.014 28.0804 135.914C28.3405 135.962 28.4644 135.608 28.4837 135.344C28.8294 130.617 29.7742 125.933 31.2883 121.441C31.866 119.727 32.5608 117.986 33.8441 116.711C33.8265 116.401 33.3319 116.511 33.1102 116.729ZM189.587 126.947C189.365 127.002 189.221 127.211 189.105 127.408C188.01 129.266 187.494 131.461 187.647 133.613C187.71 134.501 187.996 135.525 188.826 135.849C189.5 135.201 190.175 134.553 190.85 133.906C190.957 133.803 191.067 133.696 191.126 133.56C191.274 133.219 191.062 132.839 190.868 132.523C189.906 130.958 189.184 128.975 189.985 127.323C190.085 127.117 189.809 126.892 189.587 126.947ZM203.605 124.942C203.497 124.998 203.414 125.091 203.334 125.182C201.342 127.434 199.419 129.747 197.567 132.115C197.18 132.61 196.777 133.168 196.815 133.794C196.849 134.351 197.24 134.837 197.715 135.13C198.19 135.423 198.744 135.557 199.287 135.686C199.432 135.72 199.59 135.754 199.726 135.694C199.852 135.638 199.932 135.515 200.004 135.398C201.138 133.57 202.288 131.706 202.823 129.622C202.937 129.178 203.323 128.868 203.63 128.528C204.235 127.86 204.59 126.97 204.61 126.069C204.617 125.764 204.581 125.443 204.404 125.194C204.228 124.945 203.875 124.801 203.605 124.942ZM155.103 133.857C155.377 133.925 155.68 134.029 155.803 134.284C156.02 134.732 155.511 135.2 155.035 135.347C154.666 135.462 154.255 135.501 153.901 135.346C153.547 135.192 153.278 134.801 153.359 134.424C153.501 133.753 154.437 133.692 155.103 133.857ZM95.9539 132.878C96.0834 132.994 96.2035 133.131 96.2526 133.298C96.3515 133.633 96.1171 134.003 95.7955 134.141C95.4739 134.279 95.0984 134.226 94.7744 134.094C94.4332 133.955 94.1008 133.689 94.0574 133.323C94.0078 132.904 94.3869 132.519 94.804 132.459C95.221 132.398 95.64 132.597 95.9539 132.878ZM132.863 129.199C133.195 129.334 133.23 129.838 133 130.114C132.771 130.391 132.388 130.483 132.03 130.513C131.672 130.543 131.302 130.53 130.967 130.661C130.453 130.862 129.894 130.241 130.016 129.703C130.139 129.165 130.717 128.83 131.268 128.804C131.82 128.778 132.351 128.991 132.863 129.199ZM154.532 128.389C155.004 128.412 155.471 128.536 155.892 128.75C156.075 128.843 156.263 128.971 156.315 129.169C156.423 129.578 155.91 129.858 155.496 129.938C155.128 130.008 154.756 130.05 154.382 130.063C153.92 130.079 153.364 129.99 153.18 129.567C153.037 129.238 153.211 128.834 153.503 128.626C153.796 128.418 154.174 128.372 154.532 128.389ZM184.952 98.2528C182.199 98.697 179.434 99.0652 176.661 99.3567C174.652 99.5679 172.76 100.708 171.634 102.385C171.403 102.729 171.244 103.279 171.601 103.49C172.612 102.324 173.984 101.476 175.478 101.092C176.013 100.955 176.597 100.88 177.101 101.105C177.605 101.329 177.965 101.947 177.737 102.45C177.387 103.221 176.271 103.005 175.425 102.954C173.074 102.81 171.041 105.501 171.821 107.723C172.368 105.602 175.397 104.681 177.095 106.066C178.793 107.451 178.585 110.493 176.769 111.719C176.169 112.124 175.399 112.407 175.125 113.077C174.89 113.652 175.116 114.301 175.341 114.879C175.695 115.787 176.048 116.695 176.402 117.603C177.143 119.506 177.93 121.479 179.43 122.866C180.584 123.932 182.08 124.566 183.606 124.938C189.108 126.279 195.302 124.145 198.81 119.699C199.091 119.343 199.733 119.681 199.783 120.132C199.833 120.583 199.525 120.989 199.22 121.325C197.649 123.054 195.669 124.409 193.488 125.247C192.458 125.643 191.233 126.071 190.916 127.129C190.653 128.005 191.205 128.973 191.998 129.429C192.791 129.884 193.757 129.923 194.666 129.824C196.479 129.625 198.233 128.916 199.674 127.798C200.111 127.459 200.533 127.063 200.727 126.545C200.911 126.055 200.869 125.513 200.825 124.991L200.786 124.543C200.616 122.598 200.396 120.631 199.603 118.852C199.222 117.997 198.711 117.195 198.431 116.302C198.084 115.2 198.105 114.017 197.872 112.886C197.64 111.755 197.05 110.579 195.973 110.162C196.258 109.439 196.968 108.984 197.427 108.358C197.887 107.732 197.954 106.638 197.231 106.355C196.885 106.219 196.491 106.336 196.161 106.507C194.771 107.229 194.022 108.995 194.468 110.496C194.759 111.476 193.211 112.133 192.378 111.542C191.545 110.95 191.339 109.823 191.175 108.814C190.538 104.904 189.26 100.689 185.92 98.5573C185.628 98.371 185.294 98.1977 184.952 98.2528ZM95.662 125.99C96.101 126.132 96.5389 126.526 96.4475 126.979C96.3612 127.406 95.8689 127.607 95.4388 127.68C94.8287 127.785 94.0331 127.665 93.8616 127.07C93.6984 126.504 94.2908 125.962 94.8766 125.9C95.1405 125.872 95.4095 125.908 95.662 125.99ZM166.074 117.845C165.665 118.233 165.466 118.787 165.28 119.319C164.86 120.52 164.435 121.757 164.483 123.028C164.514 123.846 164.039 124.584 163.701 125.329C163.362 126.075 163.178 127.03 163.709 127.653C164.978 126.586 165.283 124.79 165.562 123.156C165.895 121.202 166.349 119.176 167.613 117.649C167.17 117.299 166.484 117.457 166.074 117.845ZM132.635 123.291C132.962 123.396 133.331 123.606 133.335 123.949C133.34 124.366 132.826 124.558 132.416 124.633C132.21 124.671 132.004 124.708 131.798 124.746C131.274 124.842 130.712 124.934 130.225 124.718C129.737 124.502 129.412 123.844 129.731 123.416C129.936 123.14 130.315 123.064 130.659 123.043C131.325 123.002 131.999 123.086 132.635 123.291ZM84.9454 117.264C85.5192 117.538 86.1611 118.079 85.9486 118.678C80.0369 117.389 73.7211 118.027 68.1862 120.471C65.6956 121.571 63.3578 123.025 60.7802 123.902C59.8983 124.202 58.9356 124.432 58.0448 124.16C57.1539 123.888 56.411 122.943 56.6716 122.049C56.9162 121.209 57.8509 120.81 58.6791 120.53C62.7609 119.148 66.9137 117.976 71.1157 117.02C75.7005 115.977 80.7036 115.235 84.9454 117.264ZM169.83 117.193C169.408 117.191 169.053 117.501 168.776 117.819C168.102 118.59 167.624 119.515 167.268 120.475C166.826 121.668 166.564 122.928 166.495 124.198C167.717 122.095 169.024 120.041 170.412 118.044C170.652 117.697 170.252 117.194 169.83 117.193ZM162.34 120.939C162.224 120.94 162.102 120.944 162.004 121.006C161.784 121.145 161.814 121.471 161.88 121.724C162.087 122.524 162.374 123.304 162.734 124.048C162.951 123 163.298 121.978 163.766 121.016C163.293 120.962 162.816 120.936 162.34 120.939ZM69.7037 118.237C66.2045 119.312 62.7052 120.388 59.206 121.463C58.788 121.592 58.303 121.79 58.2139 122.218C58.4984 122.633 59.0403 122.809 59.543 122.785C60.0457 122.761 60.5228 122.568 60.9887 122.377C64.5387 120.927 68.0888 119.476 71.6388 118.026C71.0048 117.849 70.333 118.043 69.7037 118.237ZM106.63 120.2C106.442 120.526 106.051 120.664 105.758 120.9C105.464 121.136 105.292 121.644 105.602 121.858C106.076 121.383 106.55 120.909 107.024 120.434C106.926 120.313 106.783 120.228 106.63 120.2ZM143.55 119.947C146.094 120.212 148.661 120.347 151.208 120.128C151.868 120.071 152.656 120.045 153.047 120.578C152.553 121.081 151.777 121.142 151.073 121.172C148.428 121.285 145.784 121.398 143.139 121.512C142.623 121.534 141.97 121.468 141.802 120.98C141.671 120.595 141.97 120.171 142.346 120.017C142.722 119.862 143.146 119.905 143.55 119.947ZM182.874 117.168C183.49 117.917 183.714 118.97 183.458 119.904C183.395 120.135 183.302 120.361 183.155 120.55C182.768 121.044 182.054 121.19 181.444 121.043C180.833 120.897 180.311 120.509 179.845 120.088C179.365 119.655 178.915 119.161 178.685 118.557C178.454 117.952 178.481 117.217 178.89 116.716C179.227 116.303 179.771 116.105 180.302 116.066C181.269 115.995 182.259 116.419 182.874 117.168ZM97.1295 118.908C97.3725 119.105 97.3317 119.513 97.1242 119.746C96.9167 119.98 96.6003 120.08 96.2971 120.155C95.9392 120.244 95.5627 120.314 95.2038 120.229C94.8449 120.144 94.5083 119.865 94.4641 119.499C94.4001 118.967 94.9563 118.552 95.485 118.468C96.0622 118.377 96.6749 118.541 97.1295 118.908ZM180.058 117.344C179.788 117.693 179.966 118.323 180.402 118.382C180.907 118.451 181.299 118.981 181.218 119.484C181.154 119.879 181.636 120.209 182.017 120.09C182.399 119.972 182.62 119.544 182.612 119.144C182.603 118.744 182.412 118.372 182.196 118.035C181.958 117.665 181.666 117.305 181.264 117.124C180.862 116.944 180.327 116.996 180.058 117.344ZM178.714 81.5125C175.047 82.1841 171.415 83.7858 169.05 86.6674C166.685 89.5489 165.867 93.8615 167.716 97.0985C168.369 98.2425 169.367 99.24 170.621 99.6427C171.875 100.045 173.392 99.749 174.229 98.7316C175.178 97.5776 177.095 98.6844 178.524 98.2463C180.5 97.6404 182.554 97.2888 184.619 97.203C185.109 97.1826 185.614 97.1795 186.071 97.3568C186.567 97.5491 186.959 97.9347 187.336 98.3102C188.643 99.6126 189.977 100.953 190.751 102.628C191.978 105.284 191.674 108.523 193.225 111.005C193.406 109.449 193.587 107.893 193.768 106.336C193.836 105.759 193.91 105.159 194.223 104.669C194.535 104.178 195.159 103.834 195.705 104.033C196.669 104.383 197.673 104.759 198.365 105.516C199.056 106.273 199.312 107.535 198.647 108.316C198.005 109.07 198.734 110.16 199.075 111.091C199.666 112.703 198.971 114.545 199.436 116.198C199.821 117.567 200.933 118.589 201.996 119.535C202.307 119.811 202.669 120.106 203.084 120.068C203.43 120.036 203.709 119.778 203.946 119.523C205.358 118 206.326 116.07 206.7 114.027C206.851 113.203 206.564 112.002 205.734 112.115C205.961 110.138 207.778 108.79 208.846 107.111C209.997 105.299 210.269 103.071 210.322 100.925C210.375 98.7681 210.164 96.424 208.727 94.815C207 92.882 203.644 92.7375 201.758 94.515C201.288 94.9582 200.668 95.5438 200.107 95.2231C200.546 94.4343 200.986 93.6455 201.426 92.8568C202.142 91.5713 202.874 90.2391 203.02 88.7747C203.307 85.8852 201.108 83.1494 198.387 82.1332C195.667 81.1171 192.596 81.5385 189.868 82.5322C189.184 82.7813 188.376 83.3163 188.562 84.0201C188.669 84.4277 189.082 84.6738 189.294 85.0382C189.426 85.2654 189.412 85.3381 189.263 85.5219C189.173 85.633 189.01 85.9545 188.865 85.8918C187.318 84.1002 185.645 82.2246 183.377 81.547C181.873 81.0979 180.258 81.2298 178.714 81.5125ZM161.146 118.462C160.952 118.347 160.582 118.272 160.618 118.494C160.723 119.036 161.211 119.44 161.738 119.606C162.266 119.772 162.832 119.744 163.383 119.714C163.599 119.702 163.829 119.686 164.001 119.555C164.145 119.445 164.224 119.272 164.297 119.106C164.423 118.822 164.549 118.538 164.674 118.254C163.649 117.587 162.198 119.085 161.146 118.462ZM131.528 116.608C131.96 116.64 132.388 116.716 132.805 116.832C133.165 116.933 133.58 117.145 133.598 117.519C133.622 118.012 132.98 118.213 132.489 118.256C131.988 118.299 131.488 118.342 130.988 118.385C130.623 118.417 130.211 118.433 129.943 118.184C129.583 117.849 129.728 117.2 130.118 116.901C130.508 116.602 131.038 116.571 131.528 116.608ZM143.228 116.501C145.621 116.821 148.047 116.898 150.455 116.731C150.737 116.711 151.045 116.695 151.278 116.856C151.51 117.018 151.568 117.434 151.314 117.559C151.237 117.597 151.149 117.601 151.063 117.605C148.151 117.715 145.24 117.824 142.328 117.934C142.063 117.944 141.77 117.946 141.566 117.776C141.201 117.472 141.41 116.821 141.83 116.596C142.249 116.371 142.757 116.438 143.228 116.501ZM166.461 114.129C165.531 114.179 164.585 114.266 163.727 114.626C162.869 114.987 162.099 115.665 161.843 116.56C161.791 116.741 161.771 116.965 161.911 117.092C162.019 117.192 162.182 117.193 162.329 117.188C163.874 117.127 165.411 116.897 166.905 116.503C167.648 116.307 168.544 115.835 168.443 115.073C168.39 114.672 168.045 114.359 167.662 114.226C167.28 114.093 166.865 114.108 166.461 114.129ZM59.2226 114.017C59.0744 114.802 59.0381 115.607 59.1153 116.402C59.3074 116.609 59.5601 116.204 59.5439 115.922C59.5068 115.278 59.3988 114.638 59.2226 114.017ZM108.943 113.058C114.296 113.3 119.648 113.542 125.001 113.783C125.5 113.806 126.164 113.997 126.134 114.497C125.496 114.907 124.671 114.822 123.917 114.734C119.146 114.178 114.319 114.101 109.533 114.505C109.12 114.54 108.681 114.574 108.312 114.384C107.943 114.195 107.706 113.689 107.945 113.351C108.154 113.055 108.581 113.041 108.943 113.058ZM95.9646 112.496C96.2001 112.532 96.4453 112.594 96.6164 112.759C97.0076 113.138 96.766 113.859 96.2957 114.133C95.8253 114.408 95.2429 114.369 94.7003 114.322C94.1048 114.271 93.9116 113.378 94.3027 112.926C94.6939 112.474 95.3737 112.407 95.9646 112.496ZM114.79 110.517C123.513 110.969 132.236 111.422 140.959 111.874C141.426 111.898 142.045 112.078 142.02 112.545C140.581 112.805 139.092 112.776 137.664 112.461L138.932 113.552C138.328 113.933 137.684 114.326 136.97 114.342C136.256 114.358 135.478 113.831 135.498 113.117C135.86 112.951 136.221 112.784 136.583 112.617C129.536 112.013 122.456 111.793 115.386 111.957C114.978 111.967 114.542 111.971 114.198 111.752C113.853 111.533 113.679 111.001 113.964 110.709C114.168 110.501 114.498 110.502 114.79 110.517ZM171.273 111.683C170.959 111.7 170.692 111.909 170.448 112.108C170.16 112.345 169.871 112.581 169.582 112.817C169.279 113.065 168.952 113.36 168.934 113.751C168.924 113.963 169.086 114.214 169.292 114.167C169.35 114.153 169.4 114.118 169.449 114.084C170.137 113.599 170.825 113.114 171.513 112.629C171.653 112.53 171.803 112.418 171.848 112.252C171.932 111.948 171.588 111.666 171.273 111.683ZM181.974 109.142C182.001 109.849 181.65 110.512 181.525 111.209C181.4 111.906 181.638 112.794 182.327 112.957C182.53 113.005 182.589 113.296 182.474 113.47C182.36 113.645 182.143 113.72 181.937 113.758C181.299 113.873 180.543 113.669 180.249 113.09C180.102 112.8 180.091 112.463 180.083 112.138C180.06 111.269 180.038 110.4 180.016 109.53C180.001 108.936 180.067 108.204 180.611 107.964C181.259 107.678 181.946 108.434 181.974 109.142ZM172.485 113.086C172.359 113.144 172.273 113.28 172.275 113.419L172.243 113.427C172.313 113.582 172.564 113.606 172.663 113.467C172.761 113.329 172.654 113.1 172.485 113.086ZM171.281 108.542C170.993 108.549 170.67 108.601 170.499 108.834C170.317 109.083 170.391 109.448 170.578 109.694C170.766 109.939 171.042 110.097 171.3 110.267C172.385 110.983 173.251 112.026 173.757 113.224C174.1 112.772 174.443 112.32 174.787 111.867C175.043 111.53 175.314 111.144 175.26 110.723C175.221 110.419 175.017 110.164 174.8 109.947C173.882 109.029 172.579 108.508 171.281 108.542ZM60.6478 101.547C60.2443 101.58 60.0353 102.033 59.9084 102.417C59.7152 103.003 59.5219 103.589 59.3287 104.174C59.1175 104.814 58.9049 105.461 58.847 106.133C58.8086 106.578 58.839 107.025 58.8694 107.471C58.9643 108.862 59.0592 110.253 59.1542 111.645C59.1725 111.914 59.3772 112.285 59.5996 112.133C59.5072 108.579 59.8603 105.014 60.6478 101.547ZM174.754 106.663C174.388 106.802 173.999 107.048 173.946 107.436C173.893 107.824 174.464 108.184 174.686 107.861C174.969 107.449 175.676 107.664 175.91 108.106C176.144 108.548 176.076 109.08 176.072 109.58C176.069 110.08 176.183 110.654 176.619 110.899C176.693 110.23 176.766 109.561 176.839 108.892C176.929 108.066 176.924 107.042 176.198 106.638C175.763 106.396 175.219 106.486 174.754 106.663ZM186.513 106.285C187.108 106.311 187.742 106.519 188.067 107.017C188.392 107.515 188.22 108.331 187.647 108.492C186.83 108.721 186.065 107.569 185.266 107.855C184.766 108.034 184.457 108.737 183.936 108.636C183.613 108.573 183.434 108.186 183.498 107.863C183.563 107.54 183.804 107.282 184.062 107.078C184.749 106.533 185.637 106.246 186.513 106.285ZM95.4935 105.696C96.0665 105.789 96.6274 106.416 96.3254 106.912C96.2406 107.051 96.1028 107.15 95.9586 107.226C95.6013 107.414 95.1604 107.478 94.7915 107.314C94.4226 107.15 94.163 106.724 94.2629 106.333C94.3884 105.841 94.9927 105.616 95.4935 105.696ZM187.445 102.434C187.839 102.809 188.147 103.515 187.705 103.833C187.238 104.17 186.679 103.602 186.232 103.239C185.733 102.834 185.056 102.655 184.422 102.76C184.016 102.828 183.634 103.004 183.227 103.063C182.82 103.122 182.346 103.029 182.124 102.683C181.891 102.319 182.039 101.805 182.36 101.517C182.68 101.228 183.126 101.122 183.555 101.083C184.964 100.954 186.419 101.459 187.445 102.434ZM95.4737 101.285C95.8256 101.492 96.0151 101.978 95.8193 102.336C95.5606 102.808 94.8823 102.802 94.3593 102.672C94.171 102.625 93.9729 102.564 93.8481 102.415C93.5505 102.06 93.8842 101.503 94.2997 101.298C94.6655 101.118 95.1219 101.079 95.4737 101.285Z" fill="#00160A"/>
<path fill-rule="evenodd" clip-rule="evenodd" d="M48.2506 148.828C48.2987 148.961 48.3431 149.111 48.2881 149.242C48.1895 149.476 47.8684 149.485 47.6138 149.483C45.8234 149.469 44.1589 151.007 44.0317 152.793C44.0183 152.982 43.759 153.068 43.5912 152.98C43.4235 152.893 43.3371 152.704 43.2791 152.524C42.952 151.51 43.1628 150.372 43.6842 149.442C44.2057 148.512 45.0126 147.77 45.8891 147.163C46.2292 146.927 46.6526 146.701 47.0373 146.853C47.2915 146.953 47.4576 147.196 47.596 147.432C47.8567 147.876 48.0761 148.344 48.2506 148.828ZM47.2107 148.625C47.0531 148.143 46.4135 147.97 45.9358 148.14C45.4581 148.31 45.1097 148.716 44.7846 149.106C44.4764 149.475 44.154 149.878 44.1177 150.357C44.9415 149.484 46.0362 148.871 47.2107 148.625Z" fill="#FFB61D"/>
<rect width="247" height="60" transform="translate(1.5 254)" fill="white" fill-opacity="0.01"/>
<path d="M35.1234 291V276.82H32.7234V286.88L26.2834 276.82H23.2234V291H25.6234V280.26L32.6234 291H35.1234ZM42.5573 289.22C41.1373 289.22 39.8373 288.14 39.8373 286.12C39.8373 284.1 41.1373 283.06 42.5573 283.06C43.9973 283.06 45.2773 284.1 45.2773 286.12C45.2773 288.16 43.9973 289.22 42.5573 289.22ZM42.5573 280.96C39.6573 280.96 37.5173 283.14 37.5173 286.12C37.5173 289.12 39.6573 291.3 42.5573 291.3C45.4773 291.3 47.6173 289.12 47.6173 286.12C47.6173 283.14 45.4773 280.96 42.5573 280.96ZM54.2203 288.36C54.2203 289.9 55.4803 291.3 57.5203 291.3C59.1003 291.3 60.0603 290.5 60.5203 289.76C60.5203 290.54 60.6003 290.94 60.6203 291H62.7803C62.7603 290.9 62.6603 290.32 62.6603 289.44V284.6C62.6603 282.66 61.5203 280.96 58.5203 280.96C56.1203 280.96 54.6003 282.46 54.4203 284.14L56.5403 284.62C56.6403 283.64 57.3203 282.86 58.5403 282.86C59.8203 282.86 60.3803 283.52 60.3803 284.34C60.3803 284.68 60.2203 284.96 59.6603 285.04L57.1603 285.42C55.5003 285.66 54.2203 286.62 54.2203 288.36ZM57.9603 289.48C57.0403 289.48 56.5403 288.88 56.5403 288.22C56.5403 287.42 57.1203 287.02 57.8403 286.9L60.3803 286.52V286.96C60.3803 288.86 59.2603 289.48 57.9603 289.48ZM69.6853 283.1C71.1653 283.1 71.8253 284.06 72.0453 284.92L74.1253 284.16C73.7253 282.6 72.2853 280.96 69.6653 280.96C66.8653 280.96 64.6853 283.12 64.6853 286.12C64.6853 289.08 66.8653 291.3 69.7253 291.3C72.2853 291.3 73.7453 289.64 74.2053 288.12L72.1653 287.38C71.9453 288.12 71.2453 289.18 69.7253 289.18C68.2653 289.18 67.0053 288.08 67.0053 286.12C67.0053 284.16 68.2653 283.1 69.6853 283.1ZM79.2056 278.28H77.1056V279.74C77.1056 280.6 76.6456 281.26 75.6056 281.26H75.1056V283.32H76.9056V288.22C76.9056 290.04 78.0256 291.12 79.8256 291.12C80.6656 291.12 81.1056 290.96 81.2456 290.9V288.98C81.1456 289 80.7656 289.06 80.4456 289.06C79.5856 289.06 79.2056 288.7 79.2056 287.84V283.32H81.2256V281.26H79.2056V278.28ZM85.9094 291V281.26H83.6094V291H85.9094ZM83.2494 277.84C83.2494 278.68 83.9294 279.34 84.7494 279.34C85.5894 279.34 86.2694 278.68 86.2694 277.84C86.2694 277 85.5894 276.32 84.7494 276.32C83.9294 276.32 83.2494 277 83.2494 277.84ZM97.7023 281.26H95.2623L92.7423 288.22L90.1623 281.26H87.6023L91.5623 291H93.8823L97.7023 281.26ZM101.71 291V281.26H99.4102V291H101.71ZM99.0502 277.84C99.0502 278.68 99.7302 279.34 100.55 279.34C101.39 279.34 102.07 278.68 102.07 277.84C102.07 277 101.39 276.32 100.55 276.32C99.7302 276.32 99.0502 277 99.0502 277.84ZM107.643 278.28H105.543V279.74C105.543 280.6 105.083 281.26 104.043 281.26H103.543V283.32H105.343V288.22C105.343 290.04 106.463 291.12 108.263 291.12C109.103 291.12 109.543 290.96 109.683 290.9V288.98C109.583 289 109.203 289.06 108.883 289.06C108.023 289.06 107.643 288.7 107.643 287.84V283.32H109.663V281.26H107.643V278.28ZM114.347 291V281.26H112.047V291H114.347ZM111.687 277.84C111.687 278.68 112.367 279.34 113.187 279.34C114.027 279.34 114.707 278.68 114.707 277.84C114.707 277 114.027 276.32 113.187 276.32C112.367 276.32 111.687 277 111.687 277.84ZM118.96 285.06C119.04 284.02 119.88 282.9 121.34 282.9C122.94 282.9 123.7 283.92 123.74 285.06H118.96ZM124 287.6C123.68 288.56 122.96 289.3 121.56 289.3C120.12 289.3 118.96 288.24 118.9 286.76H126.02C126.04 286.72 126.08 286.4 126.08 286.02C126.08 282.94 124.32 280.96 121.32 280.96C118.86 280.96 116.58 283 116.58 286.08C116.58 289.38 118.92 291.3 121.56 291.3C123.9 291.3 125.44 289.92 125.96 288.22L124 287.6ZM127.437 288.36C127.557 289.46 128.637 291.3 131.457 291.3C133.937 291.3 135.137 289.66 135.137 288.18C135.137 286.74 134.177 285.62 132.337 285.22L130.857 284.92C130.257 284.8 129.877 284.42 129.877 283.9C129.877 283.3 130.457 282.78 131.277 282.78C132.577 282.78 132.997 283.68 133.077 284.24L135.037 283.68C134.877 282.72 133.997 280.96 131.277 280.96C129.257 280.96 127.697 282.4 127.697 284.1C127.697 285.44 128.597 286.56 130.317 286.94L131.757 287.26C132.537 287.42 132.897 287.82 132.897 288.34C132.897 288.94 132.397 289.46 131.437 289.46C130.197 289.46 129.537 288.68 129.457 287.8L127.437 288.36ZM148.098 281.2C147.998 281.18 147.758 281.14 147.478 281.14C146.198 281.14 145.118 281.76 144.658 282.82V281.26H142.398V291H144.718V286.36C144.718 284.54 145.538 283.5 147.338 283.5C147.578 283.5 147.838 283.52 148.098 283.56V281.2ZM152.335 291V281.26H150.035V291H152.335ZM149.675 277.84C149.675 278.68 150.355 279.34 151.175 279.34C152.015 279.34 152.695 278.68 152.695 277.84C152.695 277 152.015 276.32 151.175 276.32C150.355 276.32 149.675 277 149.675 277.84ZM154.628 291.54C154.888 293.5 156.688 295.1 159.268 295.1C162.928 295.1 164.268 292.68 164.268 290.08V281.26H162.028V282.5C161.608 281.7 160.668 281.08 159.148 281.08C156.468 281.08 154.648 283.22 154.648 285.82C154.648 288.56 156.548 290.56 159.148 290.56C160.568 290.56 161.548 289.9 161.968 289.14V290.16C161.968 292.14 161.048 293.08 159.208 293.08C157.868 293.08 156.928 292.18 156.768 290.98L154.628 291.54ZM159.528 288.58C158.008 288.58 156.988 287.52 156.988 285.82C156.988 284.16 158.048 283.08 159.528 283.08C160.968 283.08 162.028 284.16 162.028 285.82C162.028 287.5 161.008 288.58 159.528 288.58ZM169.425 285.28C169.465 284.04 170.165 283.08 171.445 283.08C172.905 283.08 173.445 284.04 173.445 285.24V291H175.765V284.84C175.765 282.7 174.605 280.98 172.205 280.98C171.185 280.98 170.085 281.34 169.425 282.2V276.52H167.105V291H169.425V285.28ZM181.53 278.28H179.43V279.74C179.43 280.6 178.97 281.26 177.93 281.26H177.43V283.32H179.23V288.22C179.23 290.04 180.35 291.12 182.15 291.12C182.99 291.12 183.43 290.96 183.57 290.9V288.98C183.47 289 183.09 289.06 182.77 289.06C181.91 289.06 181.53 288.7 181.53 287.84V283.32H183.55V281.26H181.53V278.28ZM193.175 285.38C193.175 284.1 193.875 283.08 195.195 283.08C196.655 283.08 197.195 284.04 197.195 285.24V291H199.515V284.84C199.515 282.7 198.375 280.98 195.995 280.98C194.915 280.98 193.755 281.44 193.115 282.56V281.26H190.855V291H193.175V285.38ZM206.62 289.22C205.2 289.22 203.9 288.14 203.9 286.12C203.9 284.1 205.2 283.06 206.62 283.06C208.06 283.06 209.34 284.1 209.34 286.12C209.34 288.16 208.06 289.22 206.62 289.22ZM206.62 280.96C203.72 280.96 201.58 283.14 201.58 286.12C201.58 289.12 203.72 291.3 206.62 291.3C209.54 291.3 211.68 289.12 211.68 286.12C211.68 283.14 209.54 280.96 206.62 280.96ZM219.208 281.26L216.908 288L214.928 281.26H212.448L215.608 291H217.988L220.348 284L222.768 291H225.088L228.208 281.26H225.848L223.908 288L221.608 281.26H219.208Z" fill="#091E42"/>
</svg>
