<!DOCTYPE svg PUBLIC "-//W3C//DTD SVG 1.1//EN" "http://www.w3.org/Graphics/SVG/1.1/DTD/svg11.dtd">
<!-- Uploaded to: SVG Repo, www.svgrepo.com, Transformed by: SVG Repo Mixer Tools -->
<svg width="210px" height="210px" viewBox="-4.8 -4.8 57.60 57.60" xmlns="http://www.w3.org/2000/svg" fill="#000000" stroke="#000000" stroke-width="0.00048000000000000007" transform="matrix(1, 0, 0, 1, 0, 0)">
<g id="SVGRepo_bgCarrier" stroke-width="0"/>
<g id="SVGRepo_tracerCarrier" stroke-linecap="round" stroke-linejoin="round" stroke="#CCCCCC" stroke-width="3.072">
<defs>
<style>.a{fill:none;stroke:#000000;stroke-linecap:round;stroke-linejoin:round;}</style>
</defs>
<path class="a" d="M28.22,7.93V13h2.43a1.82,1.82,0,0,1,1.62,2.67l-6.15,11.8a2.39,2.39,0,0,1-4.24,0l-6.15-11.8A1.82,1.82,0,0,1,17.35,13h2.43V7.93a2,2,0,0,0-2-2H8.88a3.37,3.37,0,0,0-3,4.93L21.25,40.38a3.1,3.1,0,0,0,5.5,0L42.11,10.89a3.37,3.37,0,0,0-3-4.93H30.19A2,2,0,0,0,28.22,7.93Z"/>
<polygon class="a" points="26.59 19.68 26.59 16.69 24 15.19 21.41 16.69 21.41 19.68 24 21.18 26.59 19.68"/>
</g>
<g id="SVGRepo_iconCarrier">
<defs>
<style>.a{fill:none;stroke:#000000;stroke-linecap:round;stroke-linejoin:round;}</style>
</defs>
<path class="a" d="M28.22,7.93V13h2.43a1.82,1.82,0,0,1,1.62,2.67l-6.15,11.8a2.39,2.39,0,0,1-4.24,0l-6.15-11.8A1.82,1.82,0,0,1,17.35,13h2.43V7.93a2,2,0,0,0-2-2H8.88a3.37,3.37,0,0,0-3,4.93L21.25,40.38a3.1,3.1,0,0,0,5.5,0L42.11,10.89a3.37,3.37,0,0,0-3-4.93H30.19A2,2,0,0,0,28.22,7.93Z"/>
<polygon class="a" points="26.59 19.68 26.59 16.69 24 15.19 21.41 16.69 21.41 19.68 24 21.18 26.59 19.68"/>
</g>
</svg>